<?xml version="1.0" standalone="no"?>
<!DOCTYPE svg PUBLIC "-//W3C//DTD SVG 20010904//EN"
 "http://www.w3.org/TR/2001/REC-SVG-20010904/DTD/svg10.dtd">
<svg version="1.0" xmlns="http://www.w3.org/2000/svg"
 width="1792.000000pt" height="1792.000000pt" viewBox="0 0 1792.000000 1792.000000"
 preserveAspectRatio="xMidYMid meet">
<metadata>
Created by potrace 1.11, written by Peter Selinger 2001-2013
</metadata>
<g transform="translate(0.000000,1792.000000) scale(0.100000,-0.100000)"
fill="#000000" stroke="none">
<path d="M411 11510 c-4 -3 -7 -1280 -7 -2837 l0 -2833 346 0 345 0 0 2835 c0
1559 -2 2836 -5 2836 -18 4 -673 3 -679 -1z"/>
<path d="M4278 9986 c-1 -2 -59 -6 -128 -10 -165 -8 -202 -13 -348 -42 -130
-26 -290 -73 -359 -106 -23 -10 -44 -19 -45 -17 -11 7 -323 -173 -348 -201 -3
-3 -30 -25 -60 -48 -102 -80 -208 -188 -300 -307 -30 -38 -57 -72 -60 -75 -3
-3 -12 -16 -20 -30 -8 -14 -37 -63 -65 -110 -66 -111 -126 -243 -171 -375 -20
-59 -37 -115 -39 -124 -2 -9 -11 -42 -19 -73 -9 -32 -18 -72 -21 -90 -3 -18
-8 -40 -10 -48 -2 -8 -7 -35 -10 -60 -3 -25 -8 -56 -10 -70 -22 -141 -27 -220
-28 -440 -1 -177 7 -351 18 -390 2 -8 7 -37 10 -65 3 -27 7 -61 10 -75 3 -14
10 -45 15 -70 5 -25 11 -54 14 -66 26 -122 146 -445 176 -474 3 -3 16 -27 30
-55 13 -27 27 -52 30 -55 3 -3 17 -23 30 -45 25 -42 88 -130 130 -180 96 -117
392 -375 429 -375 6 0 11 -4 11 -9 0 -5 8 -11 18 -15 9 -3 33 -15 52 -26 34
-20 47 -20 1332 -20 1391 0 1306 -3 1398 46 l25 13 0 316 c0 174 -3 319 -7
321 -4 2 -42 -13 -85 -35 -106 -54 -261 -121 -278 -121 -8 0 -15 -4 -15 -10 0
-5 -3 -9 -7 -8 -5 0 -15 -2 -23 -5 -27 -12 -224 -76 -250 -81 -14 -3 -59 -15
-100 -26 -41 -11 -88 -23 -105 -26 -16 -2 -37 -7 -46 -10 -10 -2 -30 -6 -45
-9 -16 -2 -42 -6 -59 -8 -16 -3 -50 -8 -75 -12 -25 -4 -56 -8 -70 -10 -14 -2
-65 -7 -114 -10 -49 -3 -92 -8 -97 -10 -4 -3 -11 -1 -14 5 -4 6 -12 7 -18 3
-26 -19 -352 0 -492 29 -27 6 -59 11 -70 13 -11 2 -20 4 -20 5 0 1 -8 3 -17 6
-59 14 -130 35 -147 44 -9 4 -27 12 -41 17 -37 15 -194 95 -200 102 -3 4 -22
17 -43 30 -77 47 -225 192 -273 267 -10 16 -21 31 -24 34 -11 10 -40 60 -38
64 2 2 -4 12 -13 22 -20 24 -108 210 -115 244 0 3 -4 14 -8 25 -17 45 -26 71
-31 95 -50 241 -64 321 -69 425 l-1 30 1580 0 c1076 -1 1582 3 1586 10 8 12 4
507 -5 590 -16 155 -22 205 -31 245 -3 14 -8 41 -11 60 -3 19 -7 42 -10 50 -3
8 -8 28 -11 44 -8 52 -85 279 -114 342 -16 33 -29 66 -29 72 0 6 -3 12 -7 14
-5 2 -19 27 -32 56 -14 28 -28 52 -33 52 -4 0 -8 5 -8 11 0 27 -159 236 -247
325 -109 109 -265 228 -345 265 -16 7 -28 16 -28 21 0 4 -3 7 -7 6 -5 -1 -42
14 -83 34 -109 53 -258 103 -360 122 -14 2 -36 7 -50 10 -27 6 -86 15 -135 22
-16 2 -84 6 -150 9 -66 4 -125 8 -132 10 -6 2 -13 2 -15 1z m187 -600 c96 -13
115 -17 139 -26 14 -5 26 -8 26 -5 0 2 37 -10 83 -26 86 -32 194 -87 238 -123
14 -12 38 -30 53 -41 40 -28 141 -134 179 -186 17 -24 34 -46 37 -49 16 -16
120 -217 123 -241 2 -8 6 -19 10 -25 8 -13 53 -192 61 -244 9 -54 19 -159 20
-215 l1 -50 -1229 -1 -1228 -2 6 62 c9 85 15 119 37 211 24 99 27 110 29 110
1 0 3 7 5 15 24 94 113 269 189 370 158 210 379 358 632 424 168 43 438 63
589 42z"/>
<path d="M8598 9985 c-1 -1 -73 -6 -158 -9 -85 -4 -168 -8 -185 -11 -16 -2
-65 -9 -108 -15 -43 -7 -124 -23 -180 -37 -56 -13 -109 -26 -117 -28 -34 -7
-206 -79 -268 -112 -198 -105 -362 -260 -463 -438 -18 -33 -34 -62 -34 -65 0
-3 -13 -36 -27 -75 -28 -72 -46 -137 -53 -190 -3 -16 -9 -59 -14 -95 -9 -67
-7 -335 4 -380 3 -14 10 -48 16 -77 42 -216 188 -448 354 -561 22 -15 42 -29
45 -32 34 -39 295 -161 425 -201 22 -6 49 -15 60 -20 24 -10 115 -34 205 -55
74 -17 71 -16 165 -39 39 -9 77 -18 85 -20 8 -2 58 -13 110 -25 52 -12 104
-24 115 -25 21 -3 159 -40 210 -55 90 -28 223 -72 240 -79 166 -68 259 -129
321 -212 40 -52 101 -185 90 -196 -2 -3 -1 -16 5 -29 10 -28 13 -158 5 -216
-8 -55 -51 -163 -85 -212 -45 -65 -141 -147 -218 -186 -37 -19 -71 -39 -75
-45 -4 -5 -8 -7 -8 -4 0 4 -30 -3 -67 -16 -76 -26 -185 -50 -283 -62 -122 -15
-562 -7 -650 12 -14 3 -43 8 -65 10 -33 4 -174 33 -250 51 -11 3 -31 7 -44 10
-13 3 -34 10 -45 16 -12 6 -22 11 -23 10 -2 -1 -4 -2 -5 -1 -2 0 -10 2 -18 4
-41 8 -223 74 -375 136 -16 7 -33 13 -37 13 -4 1 -13 7 -20 14 -6 6 -16 12
-20 12 -5 0 -52 20 -105 45 -52 25 -97 45 -99 45 -2 0 -4 -157 -4 -350 l0
-350 1324 0 c1046 0 1327 3 1338 13 7 6 40 30 73 52 52 35 191 165 251 236 33
38 112 175 136 232 48 121 77 245 84 362 8 135 9 195 4 195 -3 0 -6 17 -6 38
-3 74 -18 161 -46 252 -20 64 -67 180 -78 190 -3 3 -14 21 -24 40 -24 41 -23
40 -83 109 -62 71 -83 91 -123 121 -18 14 -38 30 -44 35 -41 39 -339 198 -396
210 -8 2 -61 20 -116 40 -124 43 -396 115 -524 139 -32 5 -94 20 -250 58 -69
17 -129 31 -135 32 -5 1 -19 5 -30 8 -188 58 -233 72 -264 86 -20 9 -38 16
-41 17 -63 19 -173 90 -227 146 -92 95 -130 213 -120 373 7 106 32 184 85 264
35 54 114 130 161 153 14 8 28 17 31 20 11 14 161 73 215 84 22 5 54 12 88 20
12 3 37 8 55 10 17 3 49 8 70 11 142 21 488 21 642 0 19 -3 55 -8 80 -12 101
-14 154 -23 225 -40 33 -8 69 -17 79 -19 41 -9 222 -67 251 -79 17 -8 41 -17
55 -21 14 -4 41 -16 60 -26 19 -11 38 -19 42 -19 4 0 36 -13 70 -30 34 -16 64
-30 68 -30 3 0 5 145 5 322 l0 322 -52 23 c-29 12 -53 20 -53 17 0 -4 -6 -2
-12 3 -7 6 -35 16 -63 23 -27 7 -54 17 -60 21 -5 4 -13 7 -18 8 -4 0 -24 3
-45 8 -48 9 -52 10 -54 13 -3 2 -21 6 -58 14 -14 3 -45 10 -70 15 -25 5 -63
13 -85 17 -22 4 -42 8 -45 9 -4 1 -72 11 -150 21 -14 2 -52 6 -85 10 -33 3
-73 7 -90 9 -16 2 -106 7 -200 10 -93 3 -175 8 -182 10 -6 2 -13 2 -15 0z"/>
<path d="M10898 9882 c-71 -1 -128 -5 -128 -7 0 -7 39 -108 51 -130 6 -12 11
-27 13 -35 2 -8 6 -22 9 -30 4 -8 16 -42 28 -75 12 -33 25 -64 30 -69 5 -6 9
-18 9 -28 0 -10 4 -26 9 -36 12 -22 72 -176 75 -194 2 -7 10 -30 20 -50 9 -21
16 -42 16 -48 0 -6 4 -18 9 -28 20 -39 32 -69 34 -82 2 -8 5 -19 8 -25 4 -5
12 -28 19 -50 7 -22 16 -44 20 -50 4 -5 13 -28 19 -50 12 -40 18 -57 39 -105
19 -47 111 -295 114 -310 2 -8 5 -17 8 -20 6 -6 40 -98 45 -121 2 -9 13 -36
24 -60 12 -23 21 -51 21 -60 0 -10 4 -20 9 -24 5 -3 13 -20 17 -38 3 -17 13
-45 20 -62 7 -16 25 -61 39 -100 35 -94 55 -146 67 -170 5 -12 10 -27 12 -35
2 -8 7 -24 11 -35 4 -11 25 -67 47 -125 22 -58 45 -118 51 -135 7 -16 12 -32
12 -35 1 -3 9 -22 18 -44 9 -21 17 -42 17 -47 0 -5 4 -17 9 -27 5 -9 20 -48
35 -87 44 -121 77 -209 86 -230 5 -11 18 -47 30 -80 11 -33 24 -69 29 -80 5
-11 27 -69 49 -130 22 -60 47 -126 56 -146 8 -20 12 -39 9 -43 -4 -3 -1 -6 5
-6 7 0 12 -7 12 -16 0 -14 15 -54 55 -149 7 -16 16 -41 20 -55 3 -14 10 -35
16 -47 5 -13 13 -33 18 -45 6 -13 21 -54 35 -93 14 -38 34 -95 46 -125 12 -30
24 -64 27 -75 3 -11 10 -25 14 -31 5 -6 10 -21 12 -35 l4 -24 531 -3 532 -2
15 37 c9 21 23 61 32 88 9 28 19 55 23 60 4 6 17 39 29 75 12 36 31 84 42 107
10 24 19 47 19 52 0 8 80 223 110 296 4 11 13 36 20 55 7 19 18 49 25 65 7 17
19 48 26 70 7 22 17 44 21 49 4 6 8 17 8 25 0 9 6 28 14 42 7 14 16 37 19 50
4 14 14 43 23 65 10 21 19 46 20 54 2 8 7 23 13 35 6 11 27 65 47 120 20 55
41 111 47 125 6 14 11 30 12 35 2 6 12 33 22 60 11 28 30 75 41 105 11 30 32
84 45 120 14 36 44 117 67 180 23 63 46 124 50 135 17 37 51 135 49 137 -2 2
4 17 13 33 9 17 24 53 33 80 9 28 23 64 30 80 13 28 34 88 85 230 11 33 25 69
30 80 9 18 52 133 55 145 2 6 14 38 25 65 4 11 13 36 20 55 7 19 16 44 21 55
11 26 70 187 72 200 1 6 4 12 7 15 3 3 11 23 19 45 22 67 62 169 72 187 5 10
9 23 9 30 0 7 6 25 14 39 7 14 16 37 19 50 4 14 14 43 24 65 9 21 17 41 18 44
1 3 5 14 9 25 50 130 76 203 76 210 0 6 7 22 14 38 l15 27 -42 0 c-58 1 -536
1 -623 0 -65 0 -72 -2 -79 -22 -4 -13 -9 -27 -11 -33 -2 -5 -14 -39 -27 -75
-13 -36 -29 -76 -34 -90 -6 -14 -22 -59 -37 -100 -14 -41 -31 -86 -38 -100
-21 -48 -41 -103 -43 -120 0 -3 -6 -18 -12 -35 -24 -58 -36 -90 -39 -100 -3
-11 -151 -408 -164 -440 -13 -32 -35 -90 -36 -95 0 -3 -5 -16 -11 -30 -6 -14
-32 -83 -58 -155 -26 -71 -52 -141 -58 -155 -5 -14 -11 -29 -12 -35 -2 -5 -55
-149 -120 -320 -64 -170 -118 -314 -119 -320 -2 -9 -45 -127 -66 -180 -5 -11
-18 -47 -30 -80 -13 -33 -26 -69 -31 -80 -4 -11 -40 -106 -78 -212 -39 -105
-76 -204 -82 -220 -6 -15 -10 -29 -10 -30 0 -2 -9 -24 -20 -50 -12 -27 -22
-55 -24 -63 -2 -8 -9 -28 -16 -45 -6 -16 -14 -39 -16 -49 -2 -11 -7 -24 -12
-30 -4 -6 -27 -65 -51 -131 -23 -66 -44 -121 -45 -123 -3 -3 -38 87 -155 403
-29 77 -70 187 -92 245 -22 58 -41 110 -43 115 -1 6 -6 19 -10 30 -17 43 -54
143 -80 215 -15 41 -31 84 -36 95 -8 20 -147 390 -153 410 -2 6 -7 19 -11 30
-4 11 -21 56 -37 100 -63 171 -70 191 -78 210 -4 11 -13 34 -19 50 -6 17 -16
44 -22 60 -7 17 -13 35 -14 40 -2 9 -27 76 -70 185 -8 19 -44 116 -80 215 -37
99 -78 209 -92 245 -14 36 -26 70 -28 75 -1 6 -7 24 -14 40 -25 63 -41 108
-233 630 -23 61 -44 114 -48 118 -7 9 -379 14 -602 9z"/>
</g>
</svg>
